<?xml version="1.0" encoding="UTF-8" standalone="no"?>
<svg
   version="1.0"
   width="484.000000pt"
   height="484.000000pt"
   viewBox="0 0 484.000000 484.000000"
   preserveAspectRatio="xMidYMid meet"
   id="svg77"
   sodipodi:docname="Logo-marmithon-orangesvg.svg"
   inkscape:version="1.1.2 (0a00cf5, 2022-02-04)"
   xmlns:inkscape="http://www.inkscape.org/namespaces/inkscape"
   xmlns:sodipodi="http://sodipodi.sourceforge.net/DTD/sodipodi-0.dtd"
   xmlns="http://www.w3.org/2000/svg"
   xmlns:svg="http://www.w3.org/2000/svg">
  <defs
     id="defs81" />
  <sodipodi:namedview
     id="namedview79"
     pagecolor="#ffffff"
     bordercolor="#666666"
     borderopacity="1.0"
     inkscape:pageshadow="2"
     inkscape:pageopacity="0.0"
     inkscape:pagecheckerboard="0"
     inkscape:document-units="pt"
     showgrid="false"
     inkscape:zoom="1.2303719"
     inkscape:cx="147.10999"
     inkscape:cy="322.26029"
     inkscape:window-width="1920"
     inkscape:window-height="966"
     inkscape:window-x="0"
     inkscape:window-y="27"
     inkscape:window-maximized="1"
     inkscape:current-layer="svg77" />
  <metadata
     id="metadata69">
Created by potrace 1.16, written by Peter Selinger 2001-2019
</metadata>
  <g
     transform="translate(0.000000,484.000000) scale(0.100000,-0.100000)"
     fill="#000000"
     stroke="none"
     id="g75"
     style="fill:#ff934f;fill-opacity:1">
    <path
       d="M3417 4259 c-47 -27 -47 -35 -47 -792 0 -497 3 -724 11 -746 15 -42 59 -65 109 -56 64 11 73 30 81 168 9 159 11 1016 2 1222 -6 157 -7 160 -34 187 -30 30 -86 38 -122 17z"
       id="path71"
       style="fill:#ff934f;fill-opacity:1" />
    <path
       d="M4263 4246 l-28 -24 -6 -1119 c-6 -974 -9 -1130 -23 -1208 -102 -561 -479 -1006 -1001 -1181 -174 -58 -285 -76 -475 -76 -196 0 -304 16 -471 72 -260 86 -487 235 -657 429 l-65 75 30 12 c16 7 151 45 299 84 148 40 279 78 291 86 12 8 27 31 34 53 23 77 -35 140 -117 126 -22 -4 -151 -36 -289 -71 -137 -35 -279 -70 -313 -78 l-64 -15 -44 93 c-24 51 -44 100 -44 109 0 13 42 16 351 19 l351 3 24 28 c33 39 34 108 1 141 -22 22 -29 23 -297 29 -150 4 -324 7 -386 7 l-112 0 -10 63 c-10 54 -16 143 -13 185 1 18 17 15 474 -104 380 -99 399 -103 432 -90 66 28 83 116 32 164 -17 16 -96 42 -268 88 -134 36 -338 92 -454 123 l-210 57 -6 65 c-9 89 -10 696 -2 989 l6 243 24 -29 c13 -16 141 -181 285 -367 144 -186 270 -342 279 -348 44 -23 117 2 138 48 29 65 44 44 -684 996 l-250 327 -6 -925 c-3 -508 -8 -928 -12 -931 -3 -4 -101 17 -216 46 -218 54 -237 55 -278 17 -44 -40 -35 -129 15 -156 9 -5 118 -37 242 -71 124 -33 228 -65 233 -69 8 -8 26 -186 27 -268 l0 -53 -97 0 c-54 0 -204 -3 -333 -7 l-235 -6 -27 -28 c-21 -21 -28 -37 -28 -66 1 -50 27 -82 75 -93 22 -5 189 -10 371 -10 l330 0 48 -118 c60 -148 63 -158 39 -165 -10 -2 -153 -42 -317 -87 -165 -45 -312 -88 -327 -95 -50 -26 -60 -103 -20 -149 39 -46 63 -46 220 -4 192 51 574 148 582 148 4 0 25 -24 48 -54 211 -280 493 -480 837 -596 195 -65 330 -83 569 -77 223 5 320 21 503 82 265 89 493 234 689 438 225 234 368 507 445 845 21 96 22 106 25 1255 l4 1157 -30 30 c-39 39 -97 42 -138 6z"
       id="path73"
       style="fill:#ff934f;fill-opacity:1" />
  </g>
</svg>
