<?xml version="1.0" encoding="UTF-8" standalone="no"?>
<!-- Created with Inkscape (http://www.inkscape.org/) -->

<svg
   width="210mm"
   height="297mm"
   viewBox="0 0 210 297"
   version="1.1"
   id="svg5"
   sodipodi:docname="Logo-marmithon.svg"
   inkscape:version="1.1.2 (0a00cf5, 2022-02-04)"
   xmlns:inkscape="http://www.inkscape.org/namespaces/inkscape"
   xmlns:sodipodi="http://sodipodi.sourceforge.net/DTD/sodipodi-0.dtd"
   xmlns="http://www.w3.org/2000/svg"
   xmlns:svg="http://www.w3.org/2000/svg">
  <sodipodi:namedview
     id="namedview7"
     pagecolor="#505050"
     bordercolor="#ffffff"
     borderopacity="1"
     inkscape:pageshadow="0"
     inkscape:pageopacity="0"
     inkscape:pagecheckerboard="1"
     inkscape:document-units="mm"
     showgrid="false"
     inkscape:snap-intersection-paths="true"
     inkscape:snap-nodes="true"
     inkscape:zoom="0.57370932"
     inkscape:cx="361.68142"
     inkscape:cy="617.90874"
     inkscape:window-width="1920"
     inkscape:window-height="966"
     inkscape:window-x="0"
     inkscape:window-y="27"
     inkscape:window-maximized="1"
     inkscape:current-layer="layer5"
     inkscape:snap-page="true" />
  <defs
     id="defs2">
    <marker
       id="DistanceX"
       orient="auto"
       refX="0.0"
       refY="0.0"
       style="overflow:visible">
      <path
         d="M 3,-3 L -3,3 M 0,-5 L  0,5"
         style="stroke:#000000; stroke-width:0.5"
         id="path71" />
    </marker>
    <pattern
       id="Hatch"
       patternUnits="userSpaceOnUse"
       width="8"
       height="8"
       x="0"
       y="0">
      <path
         d="M8 4 l-4,4"
         stroke="#000000"
         stroke-width="0.25"
         linecap="square"
         id="path74" />
      <path
         d="M6 2 l-4,4"
         stroke="#000000"
         stroke-width="0.25"
         linecap="square"
         id="path76" />
      <path
         d="M4 0 l-4,4"
         stroke="#000000"
         stroke-width="0.25"
         linecap="square"
         id="path78" />
    </pattern>
    <symbol
       id="*MODEL_SPACE" />
    <symbol
       id="*PAPER_SPACE" />
  </defs>
  <g
     inkscape:groupmode="layer"
     id="layer5"
     inkscape:label="Calque 2">
    <path
       style="fill:#000000;fill-opacity:1;stroke-width:0.435761"
       d="m 413.31907,679.52339 c -27.65795,-1.6242 -55.05689,-15.21353 -73.00509,-36.20906 -2.19189,-2.56405 -4.65391,-5.64532 -5.47114,-6.84727 -0.81723,-1.20196 -1.74232,-2.2888 -2.05577,-2.41521 -0.31345,-0.12641 -10.69096,2.43796 -23.06114,5.6986 l -22.49123,5.92843 -1.95027,-0.81225 c -2.29903,-0.9575 -3.48721,-2.39125 -3.8538,-4.65032 -0.34662,-2.13594 0.75094,-4.59156 2.59562,-5.8073 0.85633,-0.56436 8.98666,-2.90119 21.00627,-6.03766 10.78508,-2.81432 19.88154,-5.37344 20.21435,-5.68695 0.51261,-0.48287 0.29825,-1.25782 -1.40235,-5.06951 -1.1041,-2.47474 -2.65819,-6.26435 -3.45353,-8.42136 l -1.44607,-3.92185 -22.20783,-0.21788 c -22.10611,-0.21688 -22.21406,-0.22233 -23.57032,-1.18976 -3.58088,-2.55427 -3.50469,-7.62892 0.15052,-10.02501 1.06551,-0.69847 3.04428,-0.78854 21.67303,-0.98653 l 20.50046,-0.21788 -0.0346,-1.74305 c -0.0477,-2.40333 -1.09554,-17.22838 -1.29395,-18.3074 -0.14014,-0.7621 -2.06157,-1.37577 -14.66798,-4.68469 -7.9787,-2.09423 -14.99695,-4.16469 -15.59612,-4.601 -1.3854,-1.00885 -2.61349,-3.4013 -2.61226,-5.08896 0.002,-2.74138 3.11209,-5.87763 5.8321,-5.88114 0.69241,-8.7e-4 6.84409,1.48091 13.67039,3.29291 6.8263,1.812 12.68109,3.19108 13.01064,3.06461 0.50343,-0.19318 0.61684,-9.42405 0.70972,-57.76762 l 0.11054,-57.53769 28.32445,37.07673 c 15.57845,20.3922 28.78872,37.93717 29.35618,38.98881 1.28688,2.38497 1.02183,4.35979 -0.87515,6.52033 -2.27336,2.58922 -6.40665,2.88523 -8.47965,0.60728 -0.45535,-0.50037 -8.48487,-10.94118 -17.84337,-23.20182 -9.3585,-12.26063 -17.30024,-22.29205 -17.64831,-22.29205 -0.54798,0 -0.64674,5.40533 -0.73642,40.30786 -0.057,22.16933 0.0411,40.51714 0.21788,40.7729 0.1768,0.25577 12.87136,3.75661 28.21014,7.77965 15.33878,4.02303 28.4947,7.68325 29.23538,8.13381 0.74068,0.45055 1.69887,1.60019 2.1293,2.55473 1.46053,3.23887 0.0128,6.72437 -3.35241,8.07083 l -1.84857,0.73966 -26.92826,-7.08477 c -19.93653,-5.24526 -27.05546,-6.95756 -27.41817,-6.59485 -0.56182,0.56182 0.17575,10.36923 1.08884,14.47824 l 0.53259,2.39669 23.52103,0.21788 c 18.30372,0.16955 23.74368,0.34487 24.5248,0.79039 2.77571,1.58314 3.6214,6.3274 1.56379,8.77273 -0.62503,0.7428 -1.55647,1.59124 -2.06987,1.88542 -0.68767,0.39404 -6.55575,0.59225 -22.28573,0.75276 l -21.35228,0.21788 0.0734,1.13557 c 0.10762,1.66399 4.9233,12.11671 5.79796,12.5848 0.52999,0.28365 6.78033,-1.18858 21.53097,-5.07146 22.37756,-5.89056 22.57336,-5.92043 25.06488,-3.82394 3.2328,2.72021 2.59194,8.04697 -1.1949,9.93204 -0.63792,0.31756 -9.34467,2.71577 -19.34834,5.32937 -13.07221,3.41529 -18.18975,4.92452 -18.19301,5.36537 -0.0129,1.75036 10.80754,12.91199 17.20801,17.75054 13.2612,10.02503 29.18498,16.41607 45.96133,18.44667 4.77662,0.57816 17.28618,0.57494 21.659,-0.006 22.25968,-2.95511 41.39838,-12.5443 56.58512,-28.35123 14.46314,-15.05376 23.52537,-35.05181 25.45359,-56.1696 0.29517,-3.23278 0.45867,-28.28598 0.46068,-70.59324 0.003,-64.67052 0.0152,-65.60173 0.86903,-67.0022 2.58879,-4.24596 8.34311,-4.06126 10.57663,0.33949 0.72775,1.43391 0.76243,5.26508 0.63679,70.36667 -0.14564,75.47245 0.006,70.88767 -2.73884,82.57667 -7.21947,30.73968 -27.50426,56.38491 -55.80604,70.55327 -12.65587,6.33575 -27.31507,10.25147 -40.2541,10.75254 -2.99585,0.11602 -6.13333,0.26028 -6.97217,0.32059 -0.83884,0.0603 -3.78022,-0.0228 -6.53641,-0.18464 z"
       id="path3448"
       transform="scale(0.26458333)" />
    <path
       style="fill:#000000;fill-opacity:1;stroke-width:0.435761"
       d="m 463.27525,540.1963 c -0.68514,-0.4662 -1.61529,-1.40821 -2.067,-2.09335 -0.79126,-1.20018 -0.82132,-2.90209 -0.82252,-46.56483 -0.001,-44.45537 0.0153,-45.34618 0.86467,-46.73932 2.58864,-4.24572 8.3583,-4.06038 10.56887,0.33949 0.7105,1.41417 0.76195,4.5235 0.76258,46.08701 7.4e-4,48.21326 0.0987,46.18268 -2.33649,48.42826 -1.58166,1.4585 -5.20916,1.74097 -6.97011,0.54274 z"
       id="path3487"
       transform="scale(0.26458333)" />
    <rect
       style="fill:none;fill-opacity:1;stroke-width:0.20092"
       id="rect3934"
       width="81.839005"
       height="83.095306"
       x="66.148155"
       y="103.52075" />
  </g>
</svg>
